<svg width="18" height="18" viewBox="0 0 18 18" fill="none" xmlns="http://www.w3.org/2000/svg">
<path fill-rule="evenodd" clip-rule="evenodd" d="M2.24707 9.00002C2.24774 8.50256 2.3622 8.01184 2.58171 7.56542V7.56542C3.82378 5.17849 6.30955 3.69993 8.99988 3.74783C11.6902 3.69993 14.176 5.17849 15.4181 7.56542V7.56542C15.8642 8.46978 15.8642 9.53026 15.4181 10.4346V10.4346C14.176 12.8216 11.6902 14.3001 8.99988 14.2522C6.30955 14.3001 3.82378 12.8216 2.58171 10.4346V10.4346C2.3622 9.9882 2.24774 9.49749 2.24707 9.00002Z" stroke="#777F8C" stroke-width="1.5" stroke-linecap="round" stroke-linejoin="round"/>
<path d="M11.2509 9.00002C11.2509 10.2432 10.2431 11.251 8.99996 11.251C7.7568 11.251 6.74902 10.2432 6.74902 9.00002C6.74902 7.75686 7.7568 6.74908 8.99996 6.74908" stroke="#777F8C" stroke-width="1.5" stroke-linecap="round" stroke-linejoin="round"/>
</svg>
