<svg width="70" height="20" viewBox="0 0 70 20" fill="none" xmlns="http://www.w3.org/2000/svg">
<g clip-path="url(#clip0_53_2133)">
<path d="M11.5295 1.97495C11.2851 1.58503 10.9664 1.24545 10.591 0.974949C10.2119 0.719444 9.79658 0.520625 9.35844 0.384949C8.88239 0.231429 8.39088 0.129167 7.8925 0.0799492C7.30923 0.0239072 6.72345 -0.00279408 6.13743 -5.08339e-05H1.06496C0.947381 -0.0109985 0.828767 0.00142641 0.716146 0.0364879C0.603525 0.0715495 0.499188 0.128534 0.409317 0.204067C0.319445 0.2796 0.245867 0.372144 0.19294 0.476217C0.140014 0.58029 0.108815 0.693775 0.101194 0.809949C0.101194 0.809949 0.101194 0.839949 0.101194 0.854949V8.97495C0.804451 10.4624 1.97231 11.689 3.4338 12.4749V10.8449C3.42267 10.7192 3.43681 10.5925 3.47542 10.4721C3.51402 10.3517 3.57634 10.2401 3.65879 10.1434C3.74125 10.0468 3.84222 9.96722 3.95594 9.90914C4.06965 9.85105 4.19387 9.81565 4.32148 9.80495H5.84322C7.91955 9.80495 9.50385 9.37662 10.5961 8.51995C11.6884 7.66328 12.243 6.39328 12.2599 4.70995C12.2617 4.22484 12.2038 3.74131 12.0874 3.26995C11.9715 2.81211 11.7832 2.37511 11.5295 1.97495ZM8.55699 6.14995C8.38008 6.45 8.11713 6.6918 7.80119 6.84495C7.45886 7.00612 7.08898 7.10278 6.71061 7.12995C6.295 7.18096 5.87653 7.20601 5.45772 7.20495H3.99685C3.64685 7.20495 3.42873 6.92495 3.42873 6.51495V3.16495C3.42368 3.09145 3.43518 3.01775 3.46239 2.94914C3.48961 2.88053 3.53186 2.81869 3.58615 2.76805C3.64043 2.71741 3.70539 2.67922 3.77639 2.65621C3.84739 2.6332 3.92267 2.62594 3.99685 2.63495H5.45772C5.93115 2.63495 6.37752 2.64828 6.79685 2.67495C7.17056 2.69263 7.53735 2.78089 7.87728 2.93495C8.19004 3.07221 8.45095 3.30315 8.62293 3.59495C8.81713 3.98621 8.9062 4.42005 8.88163 4.85495C8.89149 5.30573 8.77944 5.75097 8.55699 6.14495V6.14995ZM3.43887 12.9649C2.18798 12.5201 1.04942 11.814 0.101194 10.8949V14.8199C0.0905712 14.8947 0.0953955 14.9708 0.115377 15.0437C0.135358 15.1166 0.170083 15.1847 0.217465 15.2441C0.264847 15.3034 0.323908 15.3526 0.391096 15.3889C0.458285 15.4251 0.532214 15.4476 0.60844 15.4549H2.90119C3.50989 15.4549 3.43887 14.8149 3.43887 14.8149V12.9649ZM34.949 4.27495H32.9708C32.782 4.26278 32.5949 4.31684 32.4426 4.42756C32.2904 4.53829 32.1828 4.69854 32.1389 4.87995L29.841 11.1199C29.841 11.1199 27.8121 5.43495 27.6599 4.99495C27.6171 4.79193 27.5053 4.60938 27.343 4.47754C27.1806 4.3457 26.9775 4.27246 26.7671 4.26995H24.9461C24.2968 4.26995 24.2968 4.76995 24.3831 4.96495C24.4693 5.15995 26.9599 11.8899 27.9338 14.4649C28.0872 14.7819 28.1947 15.1185 28.2534 15.4649C28.1902 15.8068 28.0592 16.1331 27.8679 16.4249C27.7938 16.5487 27.709 16.6658 27.6142 16.7749C29.491 16.2249 31.6722 14.2199 32.7679 12.0549C33.8737 9.05495 35.3295 5.05495 35.3954 4.84995C35.4664 4.53495 35.4664 4.27495 34.949 4.27495ZM26.1331 17.3849C25.9634 17.3805 25.7941 17.3671 25.6258 17.3449C25.4179 17.3149 25.0222 17.3449 25.0222 17.6949V19.1949C25.0222 19.7699 25.3063 19.8099 25.4534 19.8499C25.9232 19.9515 26.4029 20.0018 26.8838 19.9999C27.4521 20.0147 28.0163 19.9 28.5324 19.6649C29.0045 19.4298 29.4237 19.1033 29.765 18.7049C30.1519 18.2688 30.4793 17.7847 30.7389 17.2649C31.0196 16.7116 31.2867 16.0999 31.5403 15.4299L31.8345 14.6349C31.2461 15.2099 28.649 17.6249 26.1331 17.3849ZM23.1403 6.06995C23.0325 5.81729 22.8854 5.58279 22.7041 5.37495C22.5208 5.18242 22.3128 5.01433 22.0853 4.87495C21.8395 4.70999 21.5778 4.56931 21.3041 4.45495C21.0254 4.34848 20.7388 4.26323 20.4468 4.19995C20.1128 4.1271 19.7737 4.07863 19.4324 4.05495C19.0671 4.01828 18.658 3.99995 18.2048 3.99995C15.1816 3.99995 13.4604 4.93995 13.041 6.81995C13.0232 6.89002 13.0209 6.96308 13.0344 7.0341C13.0479 7.10512 13.0769 7.17241 13.1193 7.23134C13.1617 7.29027 13.2166 7.33943 13.2801 7.37544C13.3437 7.41145 13.4144 7.43346 13.4874 7.43995H15.349C15.8563 7.43995 15.8563 7.28495 16.049 6.85495C16.1335 6.62084 16.285 6.4159 16.4853 6.26495C16.9609 5.9623 17.5234 5.82017 18.0882 5.85995C18.6148 5.80689 19.1438 5.93592 19.5845 6.22495C19.9207 6.53429 20.1194 6.96196 20.1374 7.41495C20.1374 8.03495 19.9447 8.44495 19.1635 8.44495C17.3121 8.37995 15.3237 8.58495 14.2026 9.21995C13.6508 9.55199 13.1978 10.0219 12.8896 10.5821C12.5814 11.1424 12.4289 11.7729 12.4476 12.4099C12.4348 12.9061 12.5372 13.3987 12.7468 13.8499C12.9443 14.2421 13.2307 14.5843 13.5838 14.8499C13.9544 15.1479 14.3823 15.369 14.8418 15.4999C15.3608 15.6385 15.8968 15.7058 16.4345 15.6999C17.1579 15.711 17.8786 15.6098 18.57 15.3999C19.1812 15.1531 19.7588 14.8323 20.2896 14.4449V14.7949C20.2896 15.1399 20.3961 15.4499 20.7968 15.4499H22.9526C23.3889 15.4499 23.4903 15.1449 23.4903 14.7649V8.21995C23.4929 7.81172 23.4641 7.40388 23.4041 6.99995C23.3562 6.68024 23.2676 6.36777 23.1403 6.06995ZM20.1932 12.4999C20.1932 12.4999 19.6353 13.6499 17.657 13.6499C17.1826 13.6715 16.7136 13.5436 16.3179 13.2849C16.1437 13.1516 16.006 12.9775 15.9175 12.7784C15.8289 12.5793 15.7921 12.3616 15.8106 12.1449C15.7888 11.854 15.8572 11.5634 16.0066 11.3116C16.1561 11.0598 16.3796 10.8587 16.6476 10.7349C17.4478 10.4319 18.3017 10.2908 19.1584 10.3199C19.2895 10.3005 19.4234 10.3092 19.5507 10.3455C19.6781 10.3819 19.7959 10.445 19.8962 10.5305C19.9965 10.616 20.0767 10.7219 20.1315 10.8409C20.1863 10.96 20.2143 11.0893 20.2135 11.2199L20.1932 12.4999Z" fill="#333333"/>
<path d="M69.4926 8.29014C69.7425 8.68635 69.8749 9.14359 69.8749 9.61014C69.8749 10.0767 69.7425 10.5339 69.4926 10.9301C68.9853 11.6901 66.2208 14.6001 65.3078 15.5351C64.5165 16.3451 63.4462 17.1651 62.386 17.1651H40.4273C37.4549 17.1651 37.2773 16.1651 37.2773 13.9351V4.84014C37.2773 2.55514 37.9621 1.89014 39.9962 1.89014H62.4368C63.4868 1.89014 64.4252 2.42014 65.4802 3.49014C66.4034 4.40514 69.1273 7.75014 69.4926 8.29014Z" fill="#33CCCC"/>
<path d="M42.2639 5.40502V5.35002C42.2639 5.05502 42.2639 4.77002 41.7566 4.77002H39.9153C39.4842 4.77002 39.4639 5.00002 39.4639 5.36002V7.76002C40.1902 6.7633 41.151 5.95519 42.2639 5.40502Z" fill="white"/>
<path d="M54.5945 14.0848V13.9548V8.16478C54.5945 5.74145 53.509 4.52979 51.338 4.52979C50.7338 4.53684 50.1435 4.71001 49.6337 5.02979C49.0719 5.37519 48.5701 5.80737 48.1474 6.30978C47.9562 5.76676 47.5844 5.30337 47.0924 4.99478C46.5328 4.69081 45.8995 4.54381 45.2612 4.56979C44.3224 4.57327 43.4111 4.88266 42.6692 5.44978C42.5069 5.60978 39.4583 7.94979 39.4583 10.3898V14.0948C39.4583 14.2098 39.3974 14.6598 39.9097 14.6598H41.8221C42.4155 14.6598 42.3597 14.2748 42.3597 14.1148V8.11478C42.6793 7.68978 43.3337 6.67479 44.4141 6.67479C44.5869 6.65928 44.7608 6.68958 44.9178 6.76255C45.0747 6.83551 45.209 6.94848 45.3068 7.08979C45.5238 7.51667 45.6185 7.99379 45.5808 8.46979V13.1448V14.1048C45.5808 14.2198 45.5199 14.6698 46.0322 14.6698H47.9242C48.5177 14.6698 48.4619 14.2848 48.4619 14.1248V13.9948V8.09479C48.8068 7.66979 49.4764 6.65479 50.5163 6.65479C50.6911 6.64068 50.8666 6.6715 51.0258 6.74424C51.1849 6.81697 51.3222 6.92914 51.4242 7.06979C51.6446 7.49559 51.7412 7.97322 51.7032 8.44978V13.1248V14.0848C51.7032 14.1998 51.6424 14.6498 52.1547 14.6498H54.067C54.6655 14.6198 54.5945 14.2398 54.5945 14.0848Z" fill="white"/>
<path d="M65.1399 11.7298C64.815 12.5911 64.2196 13.3276 63.4404 13.8321C62.6612 14.3367 61.739 14.5828 60.808 14.5348C57.8863 14.5348 55.9385 12.5748 55.9385 9.63477C55.9385 6.69477 57.9675 4.63477 60.7066 4.63477C63.4457 4.63477 65.2718 6.50477 65.3885 9.51977C65.3885 9.90477 65.2921 10.2448 64.8001 10.2448H58.6015C58.6421 11.8598 59.4283 12.7448 60.8283 12.7448C61.2 12.7539 61.5666 12.6581 61.8848 12.4685C62.203 12.2789 62.4595 12.0035 62.624 11.6748C62.6888 11.5818 62.776 11.5061 62.8778 11.4546C62.9797 11.4031 63.0929 11.3774 63.2073 11.3798H64.8051C64.8531 11.3775 64.9009 11.386 64.9451 11.4044C64.9893 11.4229 65.0287 11.451 65.0604 11.4865C65.092 11.5221 65.1152 11.5642 65.1281 11.6098C65.141 11.6553 65.1433 11.7032 65.1349 11.7498L65.1399 11.7298ZM60.7167 6.49977C59.5551 6.49977 58.7689 7.29476 58.5964 8.60476H62.7559C62.6493 7.45976 62.0204 6.49977 60.7167 6.49977Z" fill="white"/>
</g>
<defs>
<clipPath id="clip0_53_2133">
<rect width="70" height="20" fill="white"/>
</clipPath>
</defs>
</svg>
