<svg width="81" height="31" viewBox="0 0 81 31" fill="none" xmlns="http://www.w3.org/2000/svg">
<mask id="mask0_53_2150" style="mask-type:luminance" maskUnits="userSpaceOnUse" x="1" y="1" width="30" height="29">
<path d="M30.1229 15.5001C30.1229 7.53778 23.6035 1.08301 15.5614 1.08301C7.51938 1.08301 1 7.53778 1 15.5001C1 23.4625 7.51938 29.9173 15.5614 29.9173C23.6035 29.9173 30.1229 23.4625 30.1229 15.5001Z" fill="white"/>
</mask>
<g mask="url(#mask0_53_2150)">
<path d="M30.1229 15.5001C30.1229 7.53778 23.6035 1.08301 15.5614 1.08301C7.51938 1.08301 1 7.53778 1 15.5001C1 23.4625 7.51938 29.9173 15.5614 29.9173C23.6035 29.9173 30.1229 23.4625 30.1229 15.5001Z" fill="#A6FC6F"/>
<path d="M28.9441 1.94272C30.255 3.24053 30.9102 3.88945 31.1559 4.63772C31.3719 5.29592 31.3719 6.00493 31.1559 6.66313C30.9102 7.41139 30.255 8.0603 28.9441 9.35812L18.2473 19.949C16.9365 21.2467 16.2811 21.8956 15.5253 22.1387C14.8605 22.3527 14.1444 22.3527 13.4796 22.1387C12.7239 21.8956 12.0685 21.2467 10.7577 19.949L6.72631 15.9575C5.4155 14.6597 4.7601 14.0108 4.51455 13.2626C4.29854 12.6043 4.29854 11.8953 4.51455 11.2371C4.7601 10.4889 5.4155 9.83995 6.72631 8.54215L17.4231 -2.04867C18.7339 -3.34649 19.3893 -3.9954 20.1451 -4.23854C20.81 -4.45239 21.526 -4.45239 22.1908 -4.23854C22.9465 -3.9954 23.6019 -3.34649 24.9128 -2.04867L28.9441 1.94272Z" fill="#7000FF"/>
<path d="M24.615 15.4549C25.9258 16.7528 26.5813 17.4017 26.8268 18.1499C27.0427 18.8082 27.0427 19.5171 26.8268 20.1753C26.5813 20.9237 25.9258 21.5724 24.615 22.8703L13.9182 33.4611C12.6074 34.759 11.952 35.4079 11.1962 35.651C10.5314 35.8648 9.81531 35.8648 9.15053 35.651C8.39477 35.4079 7.73937 34.759 6.42856 33.4611L2.39721 29.4697C1.0864 28.172 0.431001 27.5231 0.18544 26.7747C-0.0305633 26.1165 -0.0305633 25.4076 0.18544 24.7493C0.431001 24.0011 1.0864 23.3522 2.39721 22.0543L13.094 11.4635C14.4048 10.1657 15.0602 9.5168 15.816 9.27368C16.4808 9.05981 17.1969 9.05981 17.8616 9.27368C18.6175 9.5168 19.2729 10.1657 20.5836 11.4635L24.615 15.4549Z" fill="#7000FF"/>
</g>
<path d="M19.6871 11.064C20.1258 11.1596 20.5503 11.2413 20.9669 11.3469C21.4096 11.4584 21.8483 11.5939 22.287 11.7154C22.3492 11.7334 22.3735 11.7573 22.3735 11.827C22.3715 13.1838 22.3855 14.5425 22.3675 15.8993C22.3472 17.3577 21.8824 18.6765 20.987 19.8361C19.9889 21.1291 18.6831 21.9618 17.0853 22.3405C16.4555 22.4898 15.8136 22.5397 15.1677 22.5017C13.6324 22.4121 12.2721 21.8762 11.1091 20.882C9.90981 19.8601 9.15322 18.573 8.84937 17.0309C8.76285 16.5926 8.72864 16.1483 8.72864 15.7021C8.72663 14.417 8.72864 13.134 8.72461 11.8489C8.72461 11.7633 8.75279 11.7334 8.83126 11.7095C9.66834 11.4445 10.5215 11.2353 11.3847 11.0799C11.3928 11.0779 11.4009 11.0799 11.421 11.0779C11.421 11.1118 11.421 11.1456 11.421 11.1775C11.421 12.7893 11.4149 14.4031 11.425 16.0148C11.431 16.8277 11.5417 17.6306 11.8214 18.4016C12.0427 19.0133 12.3707 19.5591 12.8597 20.0014C13.3185 20.4139 13.8557 20.6749 14.4574 20.8023C15.3086 20.9836 16.1577 20.9697 16.9928 20.7087C17.9788 20.402 18.6628 19.7524 19.1015 18.838C19.337 18.3498 19.4779 17.8319 19.5663 17.2999C19.6651 16.7082 19.6892 16.1105 19.6892 15.5128C19.6892 14.0743 19.6892 12.6339 19.6892 11.1954C19.6871 11.1576 19.6871 11.1217 19.6871 11.064Z" fill="white"/>
<path d="M16.7471 14.0524C15.9443 14.0524 15.1494 14.0524 14.3506 14.0524C14.3506 12.1996 14.3506 10.3487 14.3506 8.49983C14.6001 8.42213 16.2722 8.41615 16.7471 8.49385C16.7471 10.3467 16.7471 12.1996 16.7471 14.0524Z" fill="white"/>
<path d="M62.7284 10.0736C62.7284 11.3393 62.0211 11.9228 60.9685 11.9228C59.9157 11.9228 59.2329 11.3475 59.2329 10.0736V5.89844H56.9609V10.1558C56.9609 12.9297 59.2573 14.0187 60.9806 14.0187C62.704 14.0187 65.0045 12.9297 65.0045 10.1558V5.89844H62.7325L62.7284 10.0736Z" fill="#7000FF"/>
<path d="M55.0469 7.83809V5.89844H47.67V7.83809H52.0352L47.4912 11.9311V13.8707H55.3192V11.9311H50.5111L55.0469 7.83809Z" fill="#7000FF"/>
<path d="M76.3736 5.74658C74.9348 5.74658 73.8496 6.33833 73.3131 7.23829C72.7643 6.33833 71.5775 5.74658 70.3419 5.74658C67.9154 5.74658 66.6514 7.30816 66.6514 9.23959V13.8709H68.9235V9.56835C68.9235 8.64372 69.403 7.83417 70.5045 7.83417C70.7281 7.82184 70.9557 7.85472 71.1629 7.93689C71.3743 8.01909 71.5653 8.14238 71.7239 8.30264C71.8824 8.4629 72.0043 8.65604 72.0856 8.86975C72.1628 9.08344 72.1994 9.30946 72.1832 9.53547V13.875H74.4551V9.53136C74.4551 8.60674 74.9957 7.82595 76.085 7.82595C77.1743 7.82595 77.6986 8.63962 77.6986 9.56013V13.8627H79.9707V9.2437C79.9707 7.31227 78.8001 5.75069 76.3573 5.75069L76.3736 5.74658Z" fill="#7000FF"/>
<path d="M43.7275 10.0736C43.7275 11.3393 43.0201 11.9228 41.9756 11.9228C40.931 11.9228 40.232 11.3475 40.232 10.0736V5.89844H37.96V10.1558C37.96 12.9297 40.2483 14.0187 41.9798 14.0187C43.7152 14.0187 45.9954 12.9297 45.9954 10.1558V5.89844H43.7233L43.7275 10.0736Z" fill="#7000FF"/>
<path d="M57.335 23.8525V18.6869H55.0874L55.0996 19.9443C54.6119 19.2047 53.7502 18.5225 52.226 18.5225C49.6004 18.5225 48.255 20.5896 48.255 22.6565C48.2063 24.7523 49.7304 26.8317 52.1163 26.8317C53.3844 26.8317 54.5305 26.2565 55.0874 25.2702C55.2174 25.6853 55.4777 26.0469 55.8354 26.2976C56.1889 26.5482 56.6157 26.6715 57.0465 26.6468H58.3471V24.7154H57.9854C57.5384 24.7154 57.335 24.5468 57.335 23.8565V23.8525ZM52.7016 24.8428C51.4172 24.8428 50.4458 23.9428 50.4458 22.6771C50.4458 21.4114 51.4212 20.5443 52.7016 20.5443C54.0348 20.5443 54.998 21.4196 54.998 22.6771C54.998 23.9305 54.0348 24.8428 52.7016 24.8428Z" fill="#7000FF"/>
<path d="M42.6178 26.8403C39.8986 26.8403 37.96 25.5417 37.96 22.3776V16.2134H40.232V19.5174C40.8823 18.8681 41.7479 18.5516 42.9917 18.5516C45.7028 18.5516 47.2147 20.4255 47.2147 22.6898C47.2147 25.3898 45.1337 26.8403 42.634 26.8403H42.6178ZM42.5933 20.5282C41.3009 20.5282 40.3214 21.4282 40.3214 22.6939C40.3214 23.9597 41.2929 24.8267 42.5933 24.8267C43.89 24.8267 44.8899 23.9433 44.8899 22.6939C44.8899 21.4446 43.9266 20.5282 42.5933 20.5282Z" fill="#7000FF"/>
<path d="M70.1632 26.6635H72.4311V22.7555L75.9632 26.6635H78.6458L74.9837 22.5706L78.3613 18.6912H75.6949L72.4271 22.4226V16.2256H70.1592V26.6635H70.1632Z" fill="#7000FF"/>
<path d="M59.9816 18.6912H62.2536V20.1213H62.3797C62.5137 19.8542 62.7089 19.6157 62.961 19.4063C63.1722 19.2336 63.4567 19.0611 63.8184 18.909C64.1803 18.757 64.6436 18.6748 65.2166 18.6748C65.6801 18.6748 66.1109 18.7404 66.5173 18.872C66.9237 19.0036 67.2733 19.2089 67.5741 19.4885C67.8749 19.7679 68.1065 20.1253 68.2772 20.5527C68.4439 20.9802 68.5293 21.4896 68.5293 22.0855V26.6511H66.2572V22.7348C66.2572 22.0527 66.0743 21.5473 65.7086 21.2144C65.3427 20.8815 64.8549 20.7171 64.2574 20.7171C63.595 20.7171 63.095 20.9061 62.7576 21.2843C62.4244 21.6623 62.2496 22.1472 62.2496 22.7348V26.6511H59.9775V18.6912H59.9816Z" fill="#7000FF"/>
</svg>
