<svg width="22" height="22" viewBox="0 0 22 22" fill="none" xmlns="http://www.w3.org/2000/svg">
<path d="M16.961 11C16.961 11.2533 16.7557 11.4586 16.5025 11.4586C16.2492 11.4586 16.0439 11.2533 16.0439 11C16.0439 10.7468 16.2492 10.5415 16.5025 10.5415C16.7557 10.5415 16.961 10.7468 16.961 11" stroke="#777F8C" stroke-width="2" stroke-linecap="round" stroke-linejoin="round"/>
<path d="M11.4581 11C11.4581 11.2533 11.2528 11.4586 10.9995 11.4586C10.7463 11.4586 10.541 11.2533 10.541 11C10.541 10.7468 10.7463 10.5415 10.9995 10.5415C11.2528 10.5415 11.4581 10.7468 11.4581 11" stroke="#777F8C" stroke-width="2" stroke-linecap="round" stroke-linejoin="round"/>
<path d="M5.95611 11C5.95611 11.2533 5.75082 11.4586 5.49759 11.4586C5.24435 11.4586 5.03906 11.2533 5.03906 11C5.03906 10.7468 5.24435 10.5415 5.49759 10.5415C5.75082 10.5415 5.95611 10.7468 5.95611 11" stroke="#777F8C" stroke-width="2" stroke-linecap="round" stroke-linejoin="round"/>
</svg>
