<svg width="20" height="20" viewBox="0 0 20 20" fill="none" xmlns="http://www.w3.org/2000/svg">
<path fill-rule="evenodd" clip-rule="evenodd" d="M11.6663 11.6667H13.333C13.793 11.6667 14.1663 12.0401 14.1663 12.5001V15.8334C14.1663 16.2934 13.793 16.6667 13.333 16.6667H11.6663C11.2063 16.6667 10.833 16.2934 10.833 15.8334V12.5001C10.833 12.0401 11.2063 11.6667 11.6663 11.6667Z" stroke="#041527" stroke-width="1.5" stroke-linecap="round" stroke-linejoin="round"/>
<path d="M17.5003 14.1667H14.167" stroke="#041527" stroke-width="1.5" stroke-linecap="round" stroke-linejoin="round"/>
<path d="M10.8333 14.1667H2.5" stroke="#041527" stroke-width="1.5" stroke-linecap="round" stroke-linejoin="round"/>
<path fill-rule="evenodd" clip-rule="evenodd" d="M8.33301 8.33325H6.66634C6.20634 8.33325 5.83301 7.95992 5.83301 7.49992V4.16659C5.83301 3.70659 6.20634 3.33325 6.66634 3.33325H8.33301C8.79301 3.33325 9.16634 3.70659 9.16634 4.16659V7.49992C9.16634 7.95992 8.79301 8.33325 8.33301 8.33325Z" stroke="#041527" stroke-width="1.5" stroke-linecap="round" stroke-linejoin="round"/>
<path d="M2.5 5.83317H5.83333" stroke="#041527" stroke-width="1.5" stroke-linecap="round" stroke-linejoin="round"/>
<path d="M9.16699 5.83317H17.5003" stroke="#041527" stroke-width="1.5" stroke-linecap="round" stroke-linejoin="round"/>
</svg>
