<svg width="24" height="24" viewBox="0 0 24 24" fill="none" xmlns="http://www.w3.org/2000/svg">
<path d="M20.4774 14.9971C19.2103 18.5926 15.8127 20.9977 12.0004 20.9977C8.18813 20.9977 4.79056 18.5926 3.52344 14.9971" stroke="#777F8C" stroke-width="2" stroke-linecap="round" stroke-linejoin="round"/>
<path d="M21 12C21 7.02944 16.9706 3 12 3C7.02944 3 3 7.02944 3 12" stroke="#777F8C" stroke-width="2" stroke-linecap="round" stroke-linejoin="round"/>
<path d="M3 12H4.5" stroke="#777F8C" stroke-width="2" stroke-linecap="round" stroke-linejoin="round"/>
<path d="M19.5 12H21" stroke="#777F8C" stroke-width="2" stroke-linecap="round" stroke-linejoin="round"/>
<path fill-rule="evenodd" clip-rule="evenodd" d="M14.3137 9.03886L11.1822 10.3283C10.5925 10.5712 10.1631 11.0926 10.038 11.718C9.91297 12.3434 10.1087 12.9899 10.5597 13.4409V13.4409C11.0106 13.8918 11.6572 14.0876 12.2825 13.9625C12.9079 13.8374 13.4294 13.4081 13.6722 12.8184L14.9617 9.68684C15.038 9.50155 14.9954 9.28856 14.8537 9.14687C14.712 9.00517 14.499 8.96257 14.3137 9.03886Z" stroke="#777F8C" stroke-width="2" stroke-linecap="round" stroke-linejoin="round"/>
<path d="M5.63574 5.63599L6.69644 6.69669" stroke="#777F8C" stroke-width="2" stroke-linecap="round" stroke-linejoin="round"/>
<path d="M12 3V4.5" stroke="#777F8C" stroke-width="2" stroke-linecap="round" stroke-linejoin="round"/>
<path d="M18.3644 5.63599L17.3037 6.69669" stroke="#777F8C" stroke-width="2" stroke-linecap="round" stroke-linejoin="round"/>
</svg>
