<svg width="22" height="22" viewBox="0 0 22 22" fill="none" xmlns="http://www.w3.org/2000/svg">
<path fill-rule="evenodd" clip-rule="evenodd" d="M11 11.9165V11.9165C9.48108 11.9165 8.25 10.6854 8.25 9.1665V9.1665C8.25 7.64759 9.48108 6.4165 11 6.4165V6.4165C12.5189 6.4165 13.75 7.64759 13.75 9.1665V9.1665C13.75 10.6854 12.5189 11.9165 11 11.9165Z" stroke="#777F8C" stroke-width="1.5" stroke-linecap="round" stroke-linejoin="round"/>
<path fill-rule="evenodd" clip-rule="evenodd" d="M12.2155 18.1473C11.5289 18.8107 10.4705 18.8107 9.78381 18.1473C7.92328 16.3497 4.58301 12.6389 4.58301 9.16667C4.58301 5.62283 7.45584 2.75 10.9997 2.75C14.5435 2.75 17.4163 5.62283 17.4163 9.16667C17.4163 12.6389 14.0761 16.3497 12.2155 18.1473Z" stroke="#777F8C" stroke-width="1.5" stroke-linecap="round" stroke-linejoin="round"/>
</svg>
