<svg width="22" height="22" viewBox="0 0 22 22" fill="none" xmlns="http://www.w3.org/2000/svg">
<path d="M12.7505 9.24982C13.717 10.2164 13.717 11.7834 12.7505 12.75C11.7839 13.7165 10.2169 13.7165 9.2503 12.75C8.28375 11.7834 8.28375 10.2164 9.2503 9.24982C10.2169 8.28326 11.7839 8.28326 12.7505 9.24982" stroke="#777F8C" stroke-width="1.5" stroke-linecap="round" stroke-linejoin="round"/>
<path fill-rule="evenodd" clip-rule="evenodd" d="M4.81234 11C4.81234 11.2723 4.83709 11.5445 4.87009 11.8085L3.41442 12.947C3.09176 13.2 3.00376 13.6519 3.20909 14.0067L4.50342 16.2461C4.70784 16.6008 5.14234 16.7503 5.52276 16.5981L6.82626 16.0747C7.08384 15.9711 7.37076 16.0123 7.60176 16.1654C7.80342 16.2993 8.01242 16.4221 8.22876 16.5321C8.47626 16.6577 8.65592 16.8823 8.69534 17.1573L8.89426 18.5442C8.95201 18.9493 9.29942 19.25 9.70826 19.25H12.2905C12.6993 19.25 13.0468 18.9493 13.1045 18.5442L13.3034 17.1582C13.3428 16.8832 13.5243 16.6568 13.7728 16.5321C13.9882 16.4239 14.1963 16.302 14.397 16.1691C14.6298 16.0151 14.9177 15.9711 15.1762 16.0756L16.4769 16.5981C16.8564 16.7503 17.2909 16.6008 17.4963 16.2461L18.7906 14.0067C18.9959 13.6519 18.9079 13.1991 18.5853 12.947L17.1296 11.8085C17.1626 11.5445 17.1873 11.2723 17.1873 11C17.1873 10.7278 17.1626 10.4555 17.1296 10.1915L18.5853 9.053C18.9079 8.8 18.9959 8.34808 18.7906 7.99333L17.4963 5.75392C17.2918 5.39917 16.8573 5.24975 16.4769 5.40192L15.1762 5.92442C14.9177 6.028 14.6298 5.98492 14.397 5.83092C14.1963 5.698 13.9882 5.57608 13.7728 5.46792C13.5243 5.34325 13.3428 5.11683 13.3034 4.84183L13.1054 3.45583C13.0477 3.05067 12.7003 2.75 12.2914 2.75H9.70917C9.30034 2.75 8.95292 3.05067 8.89517 3.45583L8.69534 4.84367C8.65592 5.11775 8.47534 5.34325 8.22876 5.46883C8.01242 5.57883 7.80342 5.70258 7.60176 5.8355C7.36984 5.98767 7.08292 6.02892 6.82534 5.92533L5.52276 5.40192C5.14234 5.24975 4.70784 5.39917 4.50342 5.75392L3.20909 7.99333C3.00376 8.34808 3.09176 8.80092 3.41442 9.053L4.87009 10.1915C4.83709 10.4555 4.81234 10.7278 4.81234 11V11Z" stroke="#777F8C" stroke-width="1.5" stroke-linecap="round" stroke-linejoin="round"/>
</svg>
