<svg width="22" height="22" viewBox="0 0 22 22" fill="none" xmlns="http://www.w3.org/2000/svg">
<path d="M3.66667 0C2.3184 0 1.22222 1.2332 1.22222 2.75V19.25C0.546181 19.25 0 19.8645 0 20.625C0 21.3855 0.546181 22 1.22222 22H12.2222C12.8983 22 13.4444 21.3855 13.4444 20.625C13.4444 19.8645 12.8983 19.25 12.2222 19.25V13.0625H12.8333C13.6774 13.0625 14.3611 13.8316 14.3611 14.7812V16.1562C14.3611 17.8664 15.591 19.25 17.1111 19.25C18.6312 19.25 19.8611 17.8664 19.8611 16.1562V10.841C21.1024 10.4027 22 9.10078 22 7.5625V6.1875C22 5.80937 21.725 5.5 21.3889 5.5H20.7778V3.4375C20.7778 3.05937 20.5028 2.75 20.1667 2.75C19.8306 2.75 19.5556 3.05937 19.5556 3.4375V5.5H18.3333V3.4375C18.3333 3.05937 18.0583 2.75 17.7222 2.75C17.3861 2.75 17.1111 3.05937 17.1111 3.4375V5.5H16.5C16.1639 5.5 15.8889 5.80937 15.8889 6.1875V7.5625C15.8889 9.10078 16.7865 10.4027 18.0278 10.841V16.1562C18.0278 16.7277 17.6191 17.1875 17.1111 17.1875C16.6031 17.1875 16.1944 16.7277 16.1944 16.1562V14.7812C16.1944 12.693 14.6896 11 12.8333 11H12.2222V2.75C12.2222 1.2332 11.126 0 9.77778 0H3.66667ZM8.28437 3.55352C8.51354 3.72539 8.60903 4.04766 8.525 4.33984L7.57014 7.5582H9.77778C10.0337 7.5582 10.2628 7.73867 10.3507 8.00508C10.4385 8.27148 10.3698 8.57656 10.175 8.76562L5.89722 12.8906C5.68715 13.0926 5.38542 13.1098 5.16007 12.9379C4.93472 12.766 4.83542 12.4437 4.91944 12.1516L5.87431 8.9332H3.66667C3.41076 8.9332 3.1816 8.75273 3.09375 8.48633C3.0059 8.21992 3.07465 7.91484 3.26944 7.72578L7.54722 3.60078C7.75729 3.39883 8.05903 3.38164 8.28437 3.55352Z" fill="#777F8C"/>
</svg>
