<svg width="20" height="20" viewBox="0 0 20 20" fill="none" xmlns="http://www.w3.org/2000/svg">
<path d="M11.591 8.40901C12.4697 9.2877 12.4697 10.7123 11.591 11.591C10.7123 12.4697 9.2877 12.4697 8.40901 11.591C7.53033 10.7123 7.53033 9.2877 8.40901 8.40901C9.2877 7.53033 10.7123 7.53033 11.591 8.40901" stroke="#323232" stroke-width="1.5" stroke-linecap="round" stroke-linejoin="round"/>
<path fill-rule="evenodd" clip-rule="evenodd" d="M4.3753 10C4.3753 10.2475 4.3978 10.495 4.4278 10.735L3.10447 11.77C2.81113 12 2.73113 12.4108 2.9178 12.7333L4.09447 14.7692C4.2803 15.0917 4.6753 15.2275 5.02113 15.0892L6.20613 14.6133C6.4403 14.5192 6.70113 14.5567 6.91113 14.6958C7.09447 14.8175 7.28447 14.9292 7.48113 15.0292C7.70613 15.1433 7.86947 15.3475 7.9053 15.5975L8.08613 16.8583C8.13863 17.2267 8.45447 17.5 8.82613 17.5H11.1736C11.5453 17.5 11.8611 17.2267 11.9136 16.8583L12.0945 15.5983C12.1303 15.3483 12.2953 15.1425 12.5211 15.0292C12.717 14.9308 12.9061 14.82 13.0886 14.6992C13.3003 14.5592 13.562 14.5192 13.797 14.6142L14.9795 15.0892C15.3245 15.2275 15.7195 15.0917 15.9061 14.7692L17.0828 12.7333C17.2695 12.4108 17.1895 11.9992 16.8961 11.77L15.5728 10.735C15.6028 10.495 15.6253 10.2475 15.6253 10C15.6253 9.7525 15.6028 9.505 15.5728 9.265L16.8961 8.23C17.1895 8 17.2695 7.58917 17.0828 7.26667L15.9061 5.23083C15.7203 4.90833 15.3253 4.7725 14.9795 4.91083L13.797 5.38583C13.562 5.48 13.3003 5.44083 13.0886 5.30083C12.9061 5.18 12.717 5.06917 12.5211 4.97083C12.2953 4.8575 12.1303 4.65167 12.0945 4.40167L11.9145 3.14167C11.862 2.77333 11.5461 2.5 11.1745 2.5H8.82697C8.4553 2.5 8.13947 2.77333 8.08697 3.14167L7.9053 4.40333C7.86947 4.6525 7.7053 4.8575 7.48113 4.97167C7.28447 5.07167 7.09447 5.18417 6.91113 5.305C6.7003 5.44333 6.43947 5.48083 6.2053 5.38667L5.02113 4.91083C4.6753 4.7725 4.2803 4.90833 4.09447 5.23083L2.9178 7.26667C2.73113 7.58917 2.81113 8.00083 3.10447 8.23L4.4278 9.265C4.3978 9.505 4.3753 9.7525 4.3753 10V10Z" stroke="#323232" stroke-width="1.5" stroke-linecap="round" stroke-linejoin="round"/>
</svg>
