<svg width="54" height="54" viewBox="0 0 54 54" fill="none" xmlns="http://www.w3.org/2000/svg">
<path d="M10.125 20.25H6.75" stroke="#5B74C8" stroke-width="4" stroke-linecap="round" stroke-linejoin="round"/>
<path d="M10.125 33.75H6.75" stroke="#5B74C8" stroke-width="4" stroke-linecap="round" stroke-linejoin="round"/>
<path d="M9 27H4.5" stroke="#5B74C8" stroke-width="4" stroke-linecap="round" stroke-linejoin="round"/>
<path d="M12.6807 12.6809C18.4721 6.88949 27.182 5.15698 34.7489 8.2913C42.3158 11.4256 47.2496 18.8095 47.2496 26.9999C47.2496 35.1902 42.3158 42.5741 34.7489 45.7084C27.182 48.8427 18.4721 47.1102 12.6807 41.3188" stroke="#5B74C8" stroke-width="4" stroke-linecap="round" stroke-linejoin="round"/>
<path d="M27 16.875V18.9199" stroke="#5B74C8" stroke-width="4" stroke-linecap="round" stroke-linejoin="round"/>
<path d="M21.9375 23.0097C22.2333 20.4973 24.4815 18.681 27 18.9199" stroke="#5B74C8" stroke-width="4" stroke-linecap="round" stroke-linejoin="round"/>
<path d="M27 37.125V35.0801" stroke="#5B74C8" stroke-width="4" stroke-linecap="round" stroke-linejoin="round"/>
<path d="M32.0625 30.9904C31.7667 33.5028 29.5185 35.3191 27 35.0802" stroke="#5B74C8" stroke-width="4" stroke-linecap="round" stroke-linejoin="round"/>
<path d="M31.9336 22.1175C31.1719 20.0821 29.169 18.784 27 18.9199" stroke="#5B74C8" stroke-width="4" stroke-linecap="round" stroke-linejoin="round"/>
<path d="M22.0664 31.8824C22.8281 33.9179 24.831 35.216 27 35.0801" stroke="#5B74C8" stroke-width="4" stroke-linecap="round" stroke-linejoin="round"/>
<path d="M21.9375 23.0096V23.0096C21.9375 24.7411 23.1597 26.2318 24.8575 26.5714L29.1425 27.4284C30.8403 27.768 32.0625 29.2587 32.0625 30.9902V30.9902" stroke="#5B74C8" stroke-width="4" stroke-linecap="round" stroke-linejoin="round"/>
</svg>
