<svg width="45" height="45" viewBox="0 0 45 45" fill="none" xmlns="http://www.w3.org/2000/svg">
<g clip-path="url(#clip0_415_4722)">
<path d="M19.375 12.6875H25.625L27.9395 9.21582C28.2861 8.69336 27.915 8 27.29 8H17.71C17.085 8 16.7139 8.69336 17.0605 9.21582L19.375 12.6875ZM25.625 14.25H19.375C19.1895 14.3721 18.9795 14.5088 18.7402 14.6602C15.9717 16.4326 10 20.251 10 28.3125C10 30.9004 12.0996 33 14.6875 33H30.3125C32.9004 33 35 30.9004 35 28.3125C35 20.251 29.0283 16.4326 26.2598 14.6602C26.0254 14.5088 25.8105 14.3721 25.625 14.25ZM24.1553 24.4062L26.4502 26.7012C26.9092 27.1602 26.9092 27.9023 26.4502 28.3564C25.9912 28.8105 25.249 28.8154 24.7949 28.3564L22.5 26.0615L20.2051 28.3564C19.7461 28.8154 19.0039 28.8154 18.5498 28.3564C18.0957 27.8975 18.0908 27.1553 18.5498 26.7012L20.8447 24.4062L18.5498 22.1113C18.0908 21.6523 18.0908 20.9102 18.5498 20.4561C19.0088 20.002 19.751 19.9971 20.2051 20.4561L22.5 22.751L24.7949 20.4561C25.2539 19.9971 25.9961 19.9971 26.4502 20.4561C26.9043 20.915 26.9092 21.6572 26.4502 22.1113L24.1553 24.4062Z" fill="#E95E2F"/>
</g>
<path d="M2 22.5C2 11.1782 11.1782 2 22.5 2C33.8218 2 43 11.1782 43 22.5C43 33.8218 33.8218 43 22.5 43C11.1782 43 2 33.8218 2 22.5Z" stroke="#E95E2F" stroke-width="4"/>
<defs>
<clipPath id="clip0_415_4722">
<rect width="25" height="25" fill="white" transform="translate(10 8)"/>
</clipPath>
</defs>
</svg>
