<svg width="54" height="54" viewBox="0 0 54 54" fill="none" xmlns="http://www.w3.org/2000/svg">
<path fill-rule="evenodd" clip-rule="evenodd" d="M40.5 6.1875V16.3125C40.5 16.9338 39.9963 17.4375 39.375 17.4375H36C34.5082 17.4375 33.0774 16.8449 32.0225 15.79C30.9676 14.7351 30.375 13.3043 30.375 11.8125V10.6875C30.375 7.5809 32.8934 5.0625 36 5.0625H39.375C39.9963 5.0625 40.5 5.56618 40.5 6.1875Z" stroke="#8BCC13" stroke-width="4" stroke-linecap="round" stroke-linejoin="round"/>
<path d="M40.5 14.625H45" stroke="#8BCC13" stroke-width="4" stroke-linecap="round" stroke-linejoin="round"/>
<path d="M40.5 7.875H45" stroke="#8BCC13" stroke-width="4" stroke-linecap="round" stroke-linejoin="round"/>
<path d="M30.375 11.25H27C17.0589 11.25 9 19.3089 9 29.25C9 39.1911 17.0589 47.25 27 47.25C31.7739 47.25 36.3523 45.3536 39.7279 41.9779C43.1036 38.6023 45 34.0239 45 29.25" stroke="#8BCC13" stroke-width="4" stroke-linecap="round" stroke-linejoin="round"/>
<path d="M26.0865 22.5L22.5 29.25H31.5L27.9135 36" stroke="#8BCC13" stroke-width="4" stroke-linecap="round" stroke-linejoin="round"/>
</svg>
