<svg width="45" height="45" viewBox="0 0 45 45" fill="none" xmlns="http://www.w3.org/2000/svg">
<path d="M25.625 12.6875H19.375L17.0605 9.21582C16.7139 8.69336 17.085 8 17.71 8H27.29C27.915 8 28.2861 8.69336 27.9395 9.21582L25.625 12.6875ZM19.375 14.25H25.625C25.8105 14.3721 26.0205 14.5088 26.2598 14.6602C29.0283 16.4326 35 20.251 35 28.3125C35 30.9004 32.9004 33 30.3125 33H14.6875C12.0996 33 10 30.9004 10 28.3125C10 20.251 15.9717 16.4326 18.7402 14.6602C18.9746 14.5088 19.1895 14.3721 19.375 14.25ZM23.4766 18.5469C23.4766 18.0098 23.0371 17.5703 22.5 17.5703C21.9629 17.5703 21.5234 18.0098 21.5234 18.5469V19.2305C21.1523 19.3135 20.7812 19.4453 20.4395 19.6455C19.7607 20.0508 19.1748 20.7588 19.1797 21.7891C19.1846 22.7803 19.7656 23.4053 20.3857 23.7764C20.9229 24.0986 21.5918 24.3037 22.124 24.46L22.207 24.4844C22.8223 24.6699 23.2715 24.8164 23.5742 25.0068C23.8232 25.1631 23.8574 25.2705 23.8623 25.4072C23.8672 25.6514 23.7744 25.7979 23.5742 25.9199C23.3301 26.0713 22.9443 26.1641 22.5293 26.1494C21.9873 26.1299 21.4795 25.959 20.8154 25.7344C20.7031 25.6953 20.5859 25.6562 20.4639 25.6172C19.9512 25.4463 19.3994 25.7246 19.2285 26.2324C19.0576 26.7402 19.3359 27.2969 19.8438 27.4678C19.9365 27.4971 20.0391 27.5312 20.1416 27.5703C20.5469 27.7119 21.0156 27.873 21.5186 27.9805V28.7031C21.5186 29.2402 21.958 29.6797 22.4951 29.6797C23.0322 29.6797 23.4717 29.2402 23.4717 28.7031V28.0293C23.8623 27.9463 24.2529 27.8096 24.6045 27.5898C25.3027 27.1553 25.8301 26.4131 25.8154 25.3926C25.8008 24.4014 25.2441 23.7617 24.6143 23.3613C24.0527 23.0098 23.3496 22.7949 22.8027 22.6289L22.7686 22.6191C22.1436 22.4287 21.6992 22.292 21.3867 22.1064C21.1328 21.9551 21.1279 21.8672 21.1279 21.7793C21.1279 21.5986 21.1963 21.4619 21.4307 21.3252C21.6943 21.1689 22.0947 21.0762 22.4805 21.0811C22.9492 21.0859 23.4668 21.1885 24.0039 21.335C24.5264 21.4717 25.0586 21.1641 25.2002 20.6416C25.3418 20.1191 25.0293 19.5869 24.5068 19.4453C24.1895 19.3623 23.8379 19.2793 23.4766 19.2158V18.5469Z" fill="#A3DA0B"/>
<path d="M2 22.5C2 11.1782 11.1782 2 22.5 2C33.8218 2 43 11.1782 43 22.5C43 33.8218 33.8218 43 22.5 43C11.1782 43 2 33.8218 2 22.5Z" stroke="#A3DA0B" stroke-width="4"/>
</svg>
