<svg width="45" height="45" viewBox="0 0 45 45" fill="none" xmlns="http://www.w3.org/2000/svg">
<path d="M23.5418 11.1719V11.6846C23.8196 11.7432 24.0887 11.8164 24.3318 11.8896C24.8873 12.0557 25.2172 12.7002 25.0696 13.3252C24.922 13.9502 24.3491 14.3213 23.7936 14.1553C23.3205 14.0137 22.8777 13.916 22.4828 13.9111C22.1659 13.9062 21.8447 13.9941 21.6408 14.126C21.5496 14.1895 21.5062 14.2432 21.4888 14.2725C21.4758 14.2969 21.4585 14.3311 21.4585 14.4092C21.4585 14.4238 21.4585 14.4336 21.4585 14.4385C21.4671 14.4482 21.4975 14.4971 21.6017 14.5654C21.8534 14.7363 22.2267 14.8682 22.7909 15.0586L22.83 15.0732C23.3118 15.2344 23.9541 15.4541 24.475 15.8203C25.0696 16.2402 25.6078 16.9385 25.6208 18.0127C25.6339 19.1113 25.126 19.9121 24.462 20.3809C24.1712 20.5811 23.8587 20.7227 23.5375 20.8105V21.3281C23.5375 21.9775 23.0731 22.5 22.4958 22.5C21.9185 22.5 21.4541 21.9775 21.4541 21.3281V20.7715C21.0418 20.6592 20.6642 20.5127 20.343 20.3906C20.2518 20.3564 20.165 20.3223 20.0826 20.293C19.5357 20.0879 19.2406 19.4238 19.4228 18.8086C19.6051 18.1934 20.1954 17.8613 20.7423 18.0664C20.8552 18.1104 20.9593 18.1494 21.0591 18.1885C21.6494 18.4131 22.0748 18.5742 22.5305 18.5938C22.8777 18.6084 23.1859 18.5156 23.3639 18.3936C23.4463 18.335 23.4854 18.2861 23.5028 18.252C23.5201 18.2227 23.5418 18.1641 23.5375 18.0518V18.042C23.5375 17.9932 23.5375 17.9395 23.3639 17.8174C23.1165 17.6416 22.7432 17.5049 22.1876 17.3145L22.1052 17.2852C21.6364 17.1289 21.0201 16.9189 20.5253 16.582C19.9393 16.1865 19.3751 15.5078 19.3708 14.4287C19.3664 13.3105 19.9307 12.5439 20.573 12.1143C20.8508 11.9287 21.1503 11.8018 21.4498 11.7139V11.1719C21.4498 10.5225 21.9142 10 22.4915 10C23.0687 10 23.5331 10.5225 23.5331 11.1719H23.5418ZM34.6617 26.4209C35.2303 27.29 35.0654 28.5107 34.2928 29.1504L28.7979 33.7061C27.7823 34.5459 26.5583 35 25.2953 35H18.3334H11.3889C10.6207 35 10 34.3018 10 33.4375V30.3125C10 29.4482 10.6207 28.75 11.3889 28.75H12.9861L14.9349 26.9922C15.9202 26.1035 17.1442 25.625 18.4072 25.625H21.8057H22.5001H25.2779C26.0462 25.625 26.6668 26.3232 26.6668 27.1875C26.6668 28.0518 26.0462 28.75 25.2779 28.75H22.5001H21.8057C21.4237 28.75 21.1112 29.1016 21.1112 29.5312C21.1112 29.9609 21.4237 30.3125 21.8057 30.3125H27.0401L32.2355 26.0059C33.0081 25.3662 34.0931 25.5518 34.6617 26.4209ZM18.4029 28.75H18.3638C18.3768 28.75 18.3898 28.75 18.4029 28.75Z" fill="#5B74C8"/>
<circle cx="22.5" cy="22.5" r="20.5" stroke="#5B74C8" stroke-width="4"/>
</svg>
