<svg width="54" height="54" viewBox="0 0 54 54" fill="none" xmlns="http://www.w3.org/2000/svg">
<path d="M46.783 21.4279C48.5606 23.2055 48.5606 26.0875 46.783 27.865C45.0054 29.6426 42.1234 29.6426 40.3459 27.865C38.5683 26.0875 38.5683 23.2055 40.3459 21.4279C42.1234 19.6503 45.0054 19.6503 46.783 21.4279" stroke="#E85029" stroke-width="4" stroke-linecap="round" stroke-linejoin="round"/>
<path d="M31.9559 13.3028C34.693 16.0399 34.693 20.4776 31.9559 23.2147C29.2188 25.9518 24.7811 25.9518 22.044 23.2147C19.3069 20.4776 19.3069 16.0399 22.044 13.3028C24.7811 10.5657 29.2188 10.5657 31.9559 13.3028" stroke="#E85029" stroke-width="4" stroke-linecap="round" stroke-linejoin="round"/>
<path d="M13.6541 21.4279C15.4317 23.2055 15.4317 26.0875 13.6541 27.865C11.8765 29.6426 8.99453 29.6426 7.21697 27.865C5.4394 26.0875 5.4394 23.2055 7.21697 21.4279C8.99454 19.6503 11.8765 19.6503 13.6541 21.4279" stroke="#E85029" stroke-width="4" stroke-linecap="round" stroke-linejoin="round"/>
<path d="M51.7495 42.7501V40.2841C51.7495 37.1768 49.2318 34.6591 46.1245 34.6591H44.3223" stroke="#E85029" stroke-width="4" stroke-linecap="round" stroke-linejoin="round"/>
<path d="M2.25 42.7501V40.2841C2.25 37.1768 4.76775 34.6591 7.875 34.6591H9.67725" stroke="#E85029" stroke-width="4" stroke-linecap="round" stroke-linejoin="round"/>
<path d="M39.0131 42.75V39.1477C39.0131 34.7985 35.4873 31.2727 31.1381 31.2727H22.8604C18.5111 31.2727 14.9854 34.7985 14.9854 39.1477V42.75" stroke="#E85029" stroke-width="4" stroke-linecap="round" stroke-linejoin="round"/>
</svg>
